<?xml version="1.0" encoding="UTF-8"?><svg id="Layer_1" xmlns="http://www.w3.org/2000/svg" viewBox="0 0 90.7 97.34"><defs><style>.cls-1{fill:#90ee90;stroke-width:0px;}</style></defs><path class="cls-1" d="M9.43,0h71.86c1.82,0,3.52.5,4.98,1.41,1.45.91,2.65,2.23,3.45,3.87.8,1.64,1.11,3.39.94,5.09-.18,1.72-.83,3.37-1.95,4.8l-27.19,35v34.35c0,1.38-.93,2.55-2.21,2.89l-26.07,9.74c-1.55.57-3.27-.21-3.84-1.76-.13-.34-.19-.7-.19-1.04v-44.18S2,15.18,2,15.18C.88,13.75.22,12.09.05,10.37c-.18-1.71.12-3.46.92-5.09l.15-.27c.8-1.52,1.94-2.74,3.31-3.6,1.46-.91,3.17-1.41,4.99-1.41h0ZM81.28,6H9.43c-.69,0-1.31.18-1.82.49-.47.29-.87.71-1.16,1.24l-.07.17c-.3.62-.42,1.26-.36,1.86s.31,1.2.73,1.73l27.77,35.74c.43.52.69,1.19.69,1.91v40.9l20.32-7.59v-33.31c0-.64.21-1.29.63-1.84l27.83-35.81c.42-.54.67-1.14.73-1.73.06-.61-.05-1.25-.35-1.86-.3-.61-.73-1.09-1.25-1.41-.51-.32-1.14-.49-1.82-.49h0Z"/></svg>