<?xml version="1.0" encoding="UTF-8"?><svg id="Layer_1" xmlns="http://www.w3.org/2000/svg" viewBox="0 0 62.5 61.5"><defs><style>.cls-1{fill:#90ee90;stroke-width:0px;}</style></defs><path class="cls-1" d="M61.47,55.52l-11.79-11.79c3.34-4.55,5.32-10.16,5.32-16.23C55,12.34,42.66,0,27.5,0S0,12.34,0,27.5s12.34,27.5,27.5,27.5c6.58,0,12.62-2.32,17.36-6.19l11.67,11.67c.68.68,1.58,1.02,2.47,1.02s1.79-.34,2.47-1.02c1.37-1.37,1.37-3.58,0-4.95h0ZM7,27.5c0-11.3,9.2-20.5,20.5-20.5s20.5,9.2,20.5,20.5-9.2,20.5-20.5,20.5S7,38.8,7,27.5Z"/></svg>