<?xml version="1.0" encoding="UTF-8"?><svg id="Layer_1" xmlns="http://www.w3.org/2000/svg" viewBox="0 0 28.02 23.99"><defs><style>.cls-1{fill:#90ee90;stroke-width:0px;}</style></defs><path class="cls-1" d="M12.26,15.35l-4.24,4.95V1c0-1.32-2-1.32-2,0v19.3L1.78,15.35c-.86-1.01-2.38.3-1.52,1.3l6,7s.02.01.03.02c.42.46,1.1.4,1.46,0,0,0,.02-.01.03-.02l6-7c.86-1-.66-2.31-1.52-1.3Z"/><path class="cls-1" d="M27.78,7.35L21.78.35s-.02-.01-.03-.02c-.4-.44-1.06-.44-1.47,0,0,0-.02.01-.03.02l-6,7c-.86,1,.66,2.31,1.52,1.3l4.24-4.95v19.3c0,1.32,2,1.32,2,0V3.7l4.24,4.95c.83.98,2.39-.28,1.52-1.3h.01Z"/></svg>